Simulation
nRows=35
nColumns=15
endheader
time  TH_x TH_y TH_z SC_y  SC_z  SC_x  AC_y  AC_z  AC_x  GH_y  GH_z  GH_yy  EL_x  PS_y
0.0  0.000000  0.000000  0.000000  -34.682578370399796  1.819234014739641  1.7495667361384657  54.80127068949996  8.043109761137053  -7.045786544047276  11.589901074822684  4.3454846615843685  6.447673474369692  22.867517873636757  0.000000
0.011899999999999999  0.000000  0.000000  0.000000  -34.434910492171554  1.783547296934182  1.7010205837714356  54.68019876289269  8.06938315834862  -7.165561040171015  9.261729520062925  4.339847171347823  8.811810954595687  22.733211062090568  0.000000
0.023799999999999998  0.000000  0.000000  0.000000  -34.36138859299016  1.8551929678049026  1.7094833266371823  54.63580115079521  8.0777835857429  -7.1955582457065  7.27035343873932  4.296021876904443  11.021980604120824  22.67226482883847  0.000000
0.035699999999999996  0.000000  0.000000  0.000000  -34.419883938780416  1.9327542039668724  1.7331263274548376  54.63420634331476  8.070708629963828  -7.181348325272989  5.511017450927616  4.301126505275453  13.042615053506342  22.653921467738154  0.000000
0.047599999999999996  0.000000  0.000000  0.000000  -34.491323034446545  2.0067890900841303  1.7579612499597717  54.58611604392119  8.046402376644409  -7.138284782410539  3.766226199946466  4.325511439243481  15.042925527557848  22.645934751420647  0.000000
0.0595  0.000000  0.000000  0.000000  -34.55610394352282  2.071308855514394  1.7762366590981464  54.59030515218092  8.013784808925738  -7.09796410186255  2.186114761489238  4.387952479160147  16.88017972294503  22.639958991048527  0.000000
0.07139999999999999  0.000000  0.000000  0.000000  -34.62129845938797  2.1294519931229856  1.7963233487393615  54.557447421846  7.9613510880139495  -7.050843318885465  0.751451647049737  4.482360053633085  18.56338686520887  22.65127173294067  0.000000
0.0833  0.000000  0.000000  0.000000  -34.669103680811176  2.180159947013326  1.8131153112528535  54.55667494330292  7.90002366114523  -7.010250154629893  -0.47383832453345004  4.611812075414349  20.009469147933046  22.6752182377247  0.000000
0.09519999999999999  0.000000  0.000000  0.000000  -34.71580108912594  2.224371254287934  1.8271849877843418  54.5262756606877  7.822677032417611  -6.970186590412411  -1.4482018081319954  4.778581527675103  21.17542620749593  22.71448243795249  0.000000
0.10709999999999999  0.000000  0.000000  0.000000  -34.746106880552375  2.2614766203829197  1.8384516740179568  54.52237343208122  7.7407846213348455  -6.938213214092702  -2.21880551901915  4.981483166519751  22.09632383921701  22.76934894493623  0.000000
0.119  0.000000  0.000000  0.000000  -34.77516704026258  2.2929222516338252  1.8469148828151531  54.48941936395185  7.647058507218908  -6.908567520377575  -2.7694729306696697  5.222921627765822  22.75428994612342  22.83776898042082  0.000000
0.1309  0.000000  0.000000  0.000000  -34.78988880601613  2.3182818392547717  1.853311609051751  54.48372823044074  7.552872461996028  -6.887639246846656  -3.1681281281811606  5.502250805116441  23.211893658984103  22.91961902151372  0.000000
0.14279999999999998  0.000000  0.000000  0.000000  -34.80457331889616  2.338988175340212  1.8585135508473594  54.44934587363237  7.450742338015707  -6.868421490131194  -3.431250737487231  5.821230956080973  23.484846833976594  23.01237956949345  0.000000
0.15469999999999998  0.000000  0.000000  0.000000  -34.80650806727211  2.35417680864913  1.8632964994759202  54.44380042191243  7.351749399943971  -6.857447630626895  -3.6214558732175317  6.1794949934972365  23.633333395237273  23.115073731742484  0.000000
0.1666  0.000000  0.000000  0.000000  -34.810433456448756  2.3660768914148265  1.8685797861863134  54.41055567190797  7.248455843730522  -6.847123157225833  -3.751418676933394  6.578004205867671  23.671238323909805  23.226099213197262  0.000000
0.1785  0.000000  0.000000  0.000000  -34.80375702847579  2.3746069272387955  1.8749884305615245  54.406798176874844  7.151118395254539  -6.844899769188823  -3.8547418606786255  7.015615681082766  23.631552766986093  23.344530566763044  0.000000
0.19039999999999999  0.000000  0.000000  0.000000  -34.8013080094732  2.3815102314146266  1.8835344313474505  54.37546232753482  7.052572266202954  -6.843022399862814  -3.939245415999582  7.4928477032998275  23.524771616727058  23.468892041634813  0.000000
0.20229999999999998  0.000000  0.000000  0.000000  -34.790160457743134  2.3862094899730866  1.8947611930755808  54.37392650190735  6.96249558126916  -6.848892546627939  -4.02852384500977  8.008374663138122  23.374970887277126  23.597863986421135  0.000000
0.21419999999999997  0.000000  0.000000  0.000000  -34.78513930047181  2.3902755647810174  1.909512493221544  54.34592860716504  6.87382772638164  -6.854352993163631  -4.124074656468181  8.562341466091556  23.187010356912598  23.72989906506447  0.000000
0.2261  0.000000  0.000000  0.000000  -34.773221241827116  2.3930054635700437  1.9283021312513713  54.348421084143716  6.795631103895852  -6.866854871219096  -4.237451085334147  9.152979937083893  22.97376374925452  23.863808962962704  0.000000
0.238  0.000000  0.000000  0.000000  -34.76914832304665  2.3958754717046347  1.9517180301252908  54.32561709592448  6.721000245103751  -6.878089181944009  -4.364040293620583  9.779964851638018  22.73430800599806  23.998205157163085  0.000000
0.24989999999999998  0.000000  0.000000  0.000000  -34.75979450542722  2.3982808475256285  1.9801824966189603  54.333940350186566  6.658381221043124  -6.895423224647779  -4.507821076211656  10.441072437394656  22.474797943850962  24.132075171693526  0.000000
0.2618  0.000000  0.000000  0.000000  -34.759783152601656  2.4014659677075865  2.0141357244943565  54.31802163661316  6.600954424826969  -6.910547006721373  -4.662654813037502  11.135617545774464  22.192913166342304  24.264416408477853  0.000000
0.2737  0.000000  0.000000  0.000000  -34.75571013254956  2.4044476996505297  2.0538466631279197  54.334075745198675  6.556707416055474  -6.931162106856212  -4.829104644588756  11.861076217602973  21.891705103716394  24.394125410647966  0.000000
0.28559999999999997  0.000000  0.000000  0.000000  -34.76218445569215  2.4084572468575485  2.0995953854471843  54.32702004989498  6.518604946392544  -6.948685406819254  -5.0003408498281665  12.61639035665828  21.567918475310396  24.519759152066605  0.000000
0.2975  0.000000  0.000000  0.000000  -34.76582983082472  2.412610464296249  2.1513631847585986  54.35263340610895  6.4942092474991036  -6.9708417238878715  -5.174234045733125  13.398698624089375  21.222308596469592  24.64027221379284  0.000000
0.30939999999999995  0.000000  0.000000  0.000000  -34.78114117370094  2.4180163547099958  2.2093389948314206  54.355845315353065  6.47640943038338  -6.989034202831202  -5.34557174030282  14.206772599529115  20.85316288574761  24.754754278504635  0.000000
0.3213  0.000000  0.000000  0.000000  -34.794560397863755  2.423731261640521  2.273412110616701  54.39227170190144  6.472521851143991  -7.011337869438251  -5.511420010095227  15.037404717523449  20.460705647169195  24.862354136321848  0.000000
0.3332  0.000000  0.000000  0.000000  -34.82043578666266  2.4311271586195087  2.3438798556570837  54.40656779144245  6.474916490202909  -7.028865271949638  -5.66682927896321  15.889229215571495  20.043330330573003  24.962045093628976  0.000000
0.34509999999999996  0.000000  0.000000  0.000000  -34.844995260068046  2.4394451532818855  2.4203260240234434  54.45400941942151  6.490879976443978  -7.049797955426158  -5.808024987209082  16.758661684735323  19.60060357753266  25.053095619139693  0.000000
0.357  0.000000  0.000000  0.000000  -34.88241400129011  2.4499474993782817  2.503049247841714  54.47916324014668  6.512648998236802  -7.065235898818275  -5.932450595863953  17.64446843593368  19.1330939242543  25.134988168137472  0.000000
0.36889999999999995  0.000000  0.000000  0.000000  -34.918874478002266  2.461889842181039  2.591436141765631  54.537274106355156  6.547549502647909  -7.0834735417158905  -6.037120945793929  18.542845677040642  18.64093360153047  25.2069774030727  0.000000
0.38079999999999997  0.000000  0.000000  0.000000  -34.968534498509385  2.47662398616565  2.6858663365969644  54.57288986416497  6.5872523928188205  -7.095352049719397  -6.12147439051244  19.453057986082026  18.126487219919518  25.268630812407842  0.000000
0.3927  0.000000  0.000000  0.000000  -35.01775277276452  2.4935244082211563  2.7857168093706166  54.64115607313402  6.6392061599481185  -7.109217766000798  -6.182853188574618  20.370959982739485  17.589872984184744  25.319235248101563  0.000000
0.40459999999999996  0.000000  0.000000  0.000000  -35.08052200302834  2.5140400310476667  2.891354148699167  54.686587677941674  6.694627442788602  -7.115893815664896  -6.2218405460445085  21.296365833358117  17.03428732947425  25.358405098568355  0.000000
